<?xml version="1.0" encoding="utf-8"?>
<!-- Generator: Adobe Illustrator 22.0.1, SVG Export Plug-In . SVG Version: 6.00 Build 0)  -->
<svg version="1.1" xmlns="http://www.w3.org/2000/svg" xmlns:xlink="http://www.w3.org/1999/xlink" x="0px" y="0px"
	 viewBox="0 0 32 32" style="enable-background:new 0 0 32 32;" xml:space="preserve">
<style type="text/css">
	.st0{fill:#030504;}
	.st1{fill:#A18A54;}
</style>
<g id="Calque_1">
	<g>
		<path class="st0" d="M16,15c0.6,0,1,0.4,1,1c0,0.6-0.4,1-1,1c-0.6,0-1-0.4-1-1C15,15.4,15.4,15,16,15 M16,1C7.7,1,1,7.7,1,16
			s6.7,15,15,15s15-6.7,15-15S24.3,1,16,1L16,1z"/>
	</g>
</g>
<g id="Calque_2">
	<g>
		<path class="st1" d="M16,15c0.6,0,1,0.4,1,1c0,0.6-0.4,1-1,1c-0.6,0-1-0.4-1-1C15,15.4,15.4,15,16,15 M16,11c-2.8,0-5,2.2-5,5
			s2.2,5,5,5s5-2.2,5-5S18.8,11,16,11L16,11z"/>
	</g>
</g>
<g id="Calque_3">
	<path class="st1" d="M6.9,4.9C6.7,5,6.7,5.3,6.8,5.4L15,15l0.8-0.8c0.1-0.1,0.1-0.3,0.1-0.4L10.3,3.2C10.2,3,9.9,2.9,9.8,3.1
		L6.9,4.9z"/>
	<path class="st1" d="M23.4,27.2l-6-8.6c-0.2-0.3-0.2-0.8,0.1-1.1l0,0c0.3-0.3,0.7-0.3,1.1-0.1l8.6,6c0.4,0.3,0.5,0.9,0.1,1.3
		l-2.6,2.6C24.3,27.7,23.7,27.6,23.4,27.2z"/>
	<polygon class="st1" points="14,16 2,13 2,14 	"/>
</g>
</svg>
